<?xml version="1.0" encoding="UTF-8"?>
<svg xmlns="http://www.w3.org/2000/svg" width="48" height="72" viewBox="0 0 48 72"><g id="decoration-topleft"><path d="M0,32 L0,6 Q0,0 6,0 L8,0 L8,32 Z" fill="#1a1610"/><path d="M0.5,32 L0.5,6 Q0.5,0.5 6,0.5 L8,0.5" fill="none" stroke="#ff6600" stroke-width="1"/></g><g id="decoration-top"><rect x="16" y="0" width="8" height="32" fill="#1a1610"/><rect x="16" y="0" width="8" height="1" fill="#ff6600"/></g><g id="decoration-topright" transform="translate(32,0)"><path d="M8,32 L8,6 Q8,0 2,0 L0,0 L0,32 Z" fill="#1a1610"/><path d="M7.5,32 L7.5,6 Q7.5,0.5 2,0.5 L0,0.5" fill="none" stroke="#ff6600" stroke-width="1"/></g><g id="decoration-left"><rect x="0" y="40" width="4" height="8" fill="#14110d"/><rect x="0" y="40" width="1" height="8" fill="#ff6600"/></g><g id="decoration-center"><rect x="16" y="40" width="8" height="8" fill="none" fill-opacity="0"/></g><g id="decoration-right"><rect x="32" y="40" width="4" height="8" fill="#14110d"/><rect x="35" y="40" width="1" height="8" fill="#ff6600"/></g><g id="decoration-bottomleft"><rect x="0" y="56" width="8" height="4" fill="#14110d"/><rect x="0" y="59" width="8" height="1" fill="#ff6600"/><rect x="0" y="56" width="1" height="4" fill="#ff6600"/></g><g id="decoration-bottom"><rect x="16" y="56" width="8" height="4" fill="#14110d"/><rect x="16" y="59" width="8" height="1" fill="#ff6600"/></g><g id="decoration-bottomright"><rect x="32" y="56" width="8" height="4" fill="#14110d"/><rect x="32" y="59" width="8" height="1" fill="#ff6600"/><rect x="39" y="56" width="1" height="4" fill="#ff6600"/></g></svg>
